<mxfile host="app.diagrams.net" modified="2022-12-10T07:44:33.476Z" agent="5.0 (Windows NT 10.0; WOW64) AppleWebKit/537.36 (KHTML, like Gecko) Chrome/83.0.4103.97 Safari/537.36" version="20.6.2" etag="6UoyQyTIbvfByvXn3LLH" type="github">
  <diagram id="tJg8SexhtmMHpzJdx7Ph" name="第 1 页">
    <mxGraphModel dx="1635" dy="2035" grid="1" gridSize="10" guides="1" tooltips="1" connect="1" arrows="1" fold="1" page="1" pageScale="1" pageWidth="827" pageHeight="1169" math="0" shadow="0">
      <root>
        <mxCell id="0" />
        <mxCell id="1" parent="0" />
        <mxCell id="aV0Ow5CXmyOoV4BcP4ZQ-1" value="&lt;font style=&quot;font-size: 10px;&quot;&gt;扣采购库存（通用）&lt;/font&gt;" style="rounded=0;whiteSpace=wrap;html=1;fontSize=10;" vertex="1" parent="1">
          <mxGeometry x="75" y="270" width="150" height="40" as="geometry" />
        </mxCell>
        <mxCell id="aV0Ow5CXmyOoV4BcP4ZQ-2" value="扣置换库存（通用）" style="rounded=0;whiteSpace=wrap;html=1;" vertex="1" parent="1">
          <mxGeometry x="75" y="340" width="150" height="40" as="geometry" />
        </mxCell>
        <mxCell id="aV0Ow5CXmyOoV4BcP4ZQ-7" style="rounded=0;orthogonalLoop=1;jettySize=auto;html=1;entryX=0.537;entryY=-0.095;entryDx=0;entryDy=0;entryPerimeter=0;fontSize=10;" edge="1" parent="1" source="aV0Ow5CXmyOoV4BcP4ZQ-4" target="aV0Ow5CXmyOoV4BcP4ZQ-5">
          <mxGeometry relative="1" as="geometry" />
        </mxCell>
        <mxCell id="aV0Ow5CXmyOoV4BcP4ZQ-8" style="edgeStyle=none;rounded=0;orthogonalLoop=1;jettySize=auto;html=1;exitX=1;exitY=1;exitDx=0;exitDy=0;entryX=0.546;entryY=0.053;entryDx=0;entryDy=0;entryPerimeter=0;fontSize=10;" edge="1" parent="1" source="aV0Ow5CXmyOoV4BcP4ZQ-4" target="aV0Ow5CXmyOoV4BcP4ZQ-6">
          <mxGeometry relative="1" as="geometry" />
        </mxCell>
        <mxCell id="aV0Ow5CXmyOoV4BcP4ZQ-4" value="扣库" style="ellipse;whiteSpace=wrap;html=1;fontSize=10;" vertex="1" parent="1">
          <mxGeometry x="447" y="-40" width="120" height="80" as="geometry" />
        </mxCell>
        <mxCell id="aV0Ow5CXmyOoV4BcP4ZQ-12" style="edgeStyle=none;rounded=0;orthogonalLoop=1;jettySize=auto;html=1;entryX=0.556;entryY=0.013;entryDx=0;entryDy=0;entryPerimeter=0;fontSize=10;" edge="1" parent="1" source="aV0Ow5CXmyOoV4BcP4ZQ-5" target="aV0Ow5CXmyOoV4BcP4ZQ-9">
          <mxGeometry relative="1" as="geometry" />
        </mxCell>
        <mxCell id="aV0Ow5CXmyOoV4BcP4ZQ-13" style="edgeStyle=none;rounded=0;orthogonalLoop=1;jettySize=auto;html=1;exitX=0.75;exitY=1;exitDx=0;exitDy=0;fontSize=10;" edge="1" parent="1" source="aV0Ow5CXmyOoV4BcP4ZQ-5" target="aV0Ow5CXmyOoV4BcP4ZQ-10">
          <mxGeometry relative="1" as="geometry" />
        </mxCell>
        <mxCell id="aV0Ow5CXmyOoV4BcP4ZQ-14" style="edgeStyle=none;rounded=0;orthogonalLoop=1;jettySize=auto;html=1;entryX=0.542;entryY=0.028;entryDx=0;entryDy=0;entryPerimeter=0;fontSize=10;" edge="1" parent="1" source="aV0Ow5CXmyOoV4BcP4ZQ-5" target="aV0Ow5CXmyOoV4BcP4ZQ-11">
          <mxGeometry relative="1" as="geometry" />
        </mxCell>
        <mxCell id="aV0Ow5CXmyOoV4BcP4ZQ-5" value="一级代理商" style="rounded=0;whiteSpace=wrap;html=1;fontSize=10;" vertex="1" parent="1">
          <mxGeometry x="337" y="80" width="120" height="30" as="geometry" />
        </mxCell>
        <mxCell id="aV0Ow5CXmyOoV4BcP4ZQ-15" style="edgeStyle=none;rounded=0;orthogonalLoop=1;jettySize=auto;html=1;exitX=0.5;exitY=1;exitDx=0;exitDy=0;entryX=0.546;entryY=0.044;entryDx=0;entryDy=0;entryPerimeter=0;fontSize=10;" edge="1" parent="1" source="aV0Ow5CXmyOoV4BcP4ZQ-6" target="aV0Ow5CXmyOoV4BcP4ZQ-9">
          <mxGeometry relative="1" as="geometry" />
        </mxCell>
        <mxCell id="aV0Ow5CXmyOoV4BcP4ZQ-16" style="edgeStyle=none;rounded=0;orthogonalLoop=1;jettySize=auto;html=1;exitX=0.5;exitY=1;exitDx=0;exitDy=0;entryX=0.548;entryY=0.028;entryDx=0;entryDy=0;entryPerimeter=0;fontSize=10;" edge="1" parent="1" source="aV0Ow5CXmyOoV4BcP4ZQ-6" target="aV0Ow5CXmyOoV4BcP4ZQ-10">
          <mxGeometry relative="1" as="geometry" />
        </mxCell>
        <mxCell id="aV0Ow5CXmyOoV4BcP4ZQ-6" value="二级代理商" style="rounded=0;whiteSpace=wrap;html=1;fontSize=10;" vertex="1" parent="1">
          <mxGeometry x="567" y="80" width="120" height="30" as="geometry" />
        </mxCell>
        <mxCell id="aV0Ow5CXmyOoV4BcP4ZQ-28" style="edgeStyle=none;rounded=0;orthogonalLoop=1;jettySize=auto;html=1;exitX=0.5;exitY=1;exitDx=0;exitDy=0;entryX=0.399;entryY=0.003;entryDx=0;entryDy=0;entryPerimeter=0;fontSize=10;" edge="1" parent="1" source="aV0Ow5CXmyOoV4BcP4ZQ-9" target="aV0Ow5CXmyOoV4BcP4ZQ-20">
          <mxGeometry relative="1" as="geometry" />
        </mxCell>
        <mxCell id="aV0Ow5CXmyOoV4BcP4ZQ-29" value="一级" style="edgeLabel;html=1;align=center;verticalAlign=middle;resizable=0;points=[];fontSize=10;" vertex="1" connectable="0" parent="aV0Ow5CXmyOoV4BcP4ZQ-28">
          <mxGeometry x="-0.2221" y="2" relative="1" as="geometry">
            <mxPoint as="offset" />
          </mxGeometry>
        </mxCell>
        <mxCell id="aV0Ow5CXmyOoV4BcP4ZQ-30" style="edgeStyle=none;rounded=0;orthogonalLoop=1;jettySize=auto;html=1;entryX=0.25;entryY=0;entryDx=0;entryDy=0;fontSize=10;" edge="1" parent="1" source="aV0Ow5CXmyOoV4BcP4ZQ-9" target="aV0Ow5CXmyOoV4BcP4ZQ-25">
          <mxGeometry relative="1" as="geometry" />
        </mxCell>
        <mxCell id="aV0Ow5CXmyOoV4BcP4ZQ-31" value="二级" style="edgeLabel;html=1;align=center;verticalAlign=middle;resizable=0;points=[];fontSize=10;" vertex="1" connectable="0" parent="aV0Ow5CXmyOoV4BcP4ZQ-30">
          <mxGeometry x="-0.2654" y="-1" relative="1" as="geometry">
            <mxPoint as="offset" />
          </mxGeometry>
        </mxCell>
        <mxCell id="aV0Ow5CXmyOoV4BcP4ZQ-9" value="授权扣库" style="rounded=0;whiteSpace=wrap;html=1;fontSize=10;" vertex="1" parent="1">
          <mxGeometry x="408" y="163" width="138" height="40" as="geometry" />
        </mxCell>
        <mxCell id="aV0Ow5CXmyOoV4BcP4ZQ-42" style="edgeStyle=none;rounded=0;orthogonalLoop=1;jettySize=auto;html=1;exitX=0.5;exitY=1;exitDx=0;exitDy=0;entryX=0.25;entryY=0;entryDx=0;entryDy=0;fontSize=10;" edge="1" parent="1" source="aV0Ow5CXmyOoV4BcP4ZQ-10" target="aV0Ow5CXmyOoV4BcP4ZQ-38">
          <mxGeometry relative="1" as="geometry" />
        </mxCell>
        <mxCell id="aV0Ow5CXmyOoV4BcP4ZQ-43" value="一级" style="edgeLabel;html=1;align=center;verticalAlign=middle;resizable=0;points=[];fontSize=10;" vertex="1" connectable="0" parent="aV0Ow5CXmyOoV4BcP4ZQ-42">
          <mxGeometry x="-0.3233" y="-1" relative="1" as="geometry">
            <mxPoint as="offset" />
          </mxGeometry>
        </mxCell>
        <mxCell id="aV0Ow5CXmyOoV4BcP4ZQ-47" style="edgeStyle=none;rounded=0;orthogonalLoop=1;jettySize=auto;html=1;exitX=0.75;exitY=1;exitDx=0;exitDy=0;entryX=0.464;entryY=0.011;entryDx=0;entryDy=0;entryPerimeter=0;fontSize=10;" edge="1" parent="1" source="aV0Ow5CXmyOoV4BcP4ZQ-10" target="aV0Ow5CXmyOoV4BcP4ZQ-44">
          <mxGeometry relative="1" as="geometry" />
        </mxCell>
        <mxCell id="aV0Ow5CXmyOoV4BcP4ZQ-48" value="二级" style="edgeLabel;html=1;align=center;verticalAlign=middle;resizable=0;points=[];fontSize=10;" vertex="1" connectable="0" parent="aV0Ow5CXmyOoV4BcP4ZQ-47">
          <mxGeometry x="-0.1395" relative="1" as="geometry">
            <mxPoint as="offset" />
          </mxGeometry>
        </mxCell>
        <mxCell id="aV0Ow5CXmyOoV4BcP4ZQ-10" value="置换扣库" style="rounded=0;whiteSpace=wrap;html=1;fontSize=10;" vertex="1" parent="1">
          <mxGeometry x="576" y="163" width="138" height="40" as="geometry" />
        </mxCell>
        <mxCell id="aV0Ow5CXmyOoV4BcP4ZQ-27" style="edgeStyle=none;rounded=0;orthogonalLoop=1;jettySize=auto;html=1;entryX=0.543;entryY=0.011;entryDx=0;entryDy=0;entryPerimeter=0;fontSize=10;" edge="1" parent="1" source="aV0Ow5CXmyOoV4BcP4ZQ-11" target="aV0Ow5CXmyOoV4BcP4ZQ-17">
          <mxGeometry relative="1" as="geometry" />
        </mxCell>
        <mxCell id="aV0Ow5CXmyOoV4BcP4ZQ-49" value="扣一级" style="edgeLabel;html=1;align=center;verticalAlign=middle;resizable=0;points=[];fontSize=10;" vertex="1" connectable="0" parent="aV0Ow5CXmyOoV4BcP4ZQ-27">
          <mxGeometry x="-0.2161" relative="1" as="geometry">
            <mxPoint as="offset" />
          </mxGeometry>
        </mxCell>
        <mxCell id="aV0Ow5CXmyOoV4BcP4ZQ-11" value="申请扣库" style="rounded=0;whiteSpace=wrap;html=1;fontSize=10;" vertex="1" parent="1">
          <mxGeometry x="235" y="163" width="138" height="40" as="geometry" />
        </mxCell>
        <mxCell id="aV0Ow5CXmyOoV4BcP4ZQ-17" value="" style="swimlane;startSize=0;fontSize=10;" vertex="1" parent="1">
          <mxGeometry x="65" y="250" width="170" height="160" as="geometry" />
        </mxCell>
        <mxCell id="aV0Ow5CXmyOoV4BcP4ZQ-18" value="&lt;font style=&quot;font-size: 10px;&quot;&gt;扣采购库存（通用&amp;amp;项目）&lt;/font&gt;" style="rounded=0;whiteSpace=wrap;html=1;fontSize=10;" vertex="1" parent="1">
          <mxGeometry x="257" y="272" width="150" height="40" as="geometry" />
        </mxCell>
        <mxCell id="aV0Ow5CXmyOoV4BcP4ZQ-20" value="" style="swimlane;startSize=0;fontSize=10;" vertex="1" parent="1">
          <mxGeometry x="247" y="250" width="168" height="160" as="geometry" />
        </mxCell>
        <mxCell id="aV0Ow5CXmyOoV4BcP4ZQ-19" value="扣置换库存（通用）" style="rounded=0;whiteSpace=wrap;html=1;" vertex="1" parent="aV0Ow5CXmyOoV4BcP4ZQ-20">
          <mxGeometry x="10" y="90" width="150" height="40" as="geometry" />
        </mxCell>
        <mxCell id="aV0Ow5CXmyOoV4BcP4ZQ-25" value="" style="swimlane;startSize=0;fontSize=10;" vertex="1" parent="1">
          <mxGeometry x="435" y="250" width="168" height="160" as="geometry" />
        </mxCell>
        <mxCell id="aV0Ow5CXmyOoV4BcP4ZQ-26" value="扣置换库存（通用）" style="rounded=0;whiteSpace=wrap;html=1;" vertex="1" parent="aV0Ow5CXmyOoV4BcP4ZQ-25">
          <mxGeometry x="10" y="90" width="150" height="40" as="geometry" />
        </mxCell>
        <mxCell id="aV0Ow5CXmyOoV4BcP4ZQ-3" value="扣申请库存（通用）" style="rounded=0;whiteSpace=wrap;html=1;" vertex="1" parent="aV0Ow5CXmyOoV4BcP4ZQ-25">
          <mxGeometry x="10" y="20" width="150" height="40" as="geometry" />
        </mxCell>
        <mxCell id="aV0Ow5CXmyOoV4BcP4ZQ-38" value="" style="swimlane;startSize=0;fontSize=10;" vertex="1" parent="1">
          <mxGeometry x="635" y="250" width="168" height="160" as="geometry" />
        </mxCell>
        <mxCell id="aV0Ow5CXmyOoV4BcP4ZQ-39" value="扣置换库存（通用）" style="rounded=0;whiteSpace=wrap;html=1;" vertex="1" parent="aV0Ow5CXmyOoV4BcP4ZQ-38">
          <mxGeometry x="10" y="90" width="150" height="40" as="geometry" />
        </mxCell>
        <mxCell id="aV0Ow5CXmyOoV4BcP4ZQ-40" value="扣采购库存（通用）" style="rounded=0;whiteSpace=wrap;html=1;" vertex="1" parent="aV0Ow5CXmyOoV4BcP4ZQ-38">
          <mxGeometry x="10" y="20" width="150" height="40" as="geometry" />
        </mxCell>
        <mxCell id="aV0Ow5CXmyOoV4BcP4ZQ-44" value="" style="swimlane;startSize=0;fontSize=10;" vertex="1" parent="1">
          <mxGeometry x="845" y="250" width="168" height="160" as="geometry" />
        </mxCell>
        <mxCell id="aV0Ow5CXmyOoV4BcP4ZQ-45" value="扣置换库存（通用）" style="rounded=0;whiteSpace=wrap;html=1;" vertex="1" parent="aV0Ow5CXmyOoV4BcP4ZQ-44">
          <mxGeometry x="10" y="90" width="150" height="40" as="geometry" />
        </mxCell>
        <mxCell id="aV0Ow5CXmyOoV4BcP4ZQ-46" value="扣申请库存（通用）" style="rounded=0;whiteSpace=wrap;html=1;" vertex="1" parent="aV0Ow5CXmyOoV4BcP4ZQ-44">
          <mxGeometry x="10" y="20" width="150" height="40" as="geometry" />
        </mxCell>
      </root>
    </mxGraphModel>
  </diagram>
</mxfile>
